<svg xmlns="http://www.w3.org/2000/svg" width="106" height="106" viewBox="0 0 106 106" version="1.1">
	<path d="M 51 36 C 51 64.333, 51.046 65, 53 65 C 54.954 65, 55 64.333, 55 36 C 55 7.667, 54.954 7, 53 7 C 51.046 7, 51 7.667, 51 36 M 57 42.500 C 57 64.333, 57.059 65, 59 65 C 60.941 65, 61 64.333, 61 42.500 C 61 20.667, 60.941 20, 59 20 C 57.059 20, 57 20.667, 57 42.500 M 39 43.500 C 39 64.333, 39.062 65, 41 65 C 42.938 65, 43 64.333, 43 43.500 C 43 22.667, 42.938 22, 41 22 C 39.062 22, 39 22.667, 39 43.500 M 45 48.500 C 45 64.333, 45.081 65, 47 65 C 48.919 65, 49 64.333, 49 48.500 C 49 32.667, 48.919 32, 47 32 C 45.081 32, 45 32.667, 45 48.500 M 63 52 C 63 64.333, 63.103 65, 65 65 C 66.897 65, 67 64.333, 67 52 C 67 39.667, 66.897 39, 65 39 C 63.103 39, 63 39.667, 63 52 M 18.073 74.635 C 15.351 78.095, 15.456 80.547, 18.455 83.545 C 21.297 86.387, 23.646 86.637, 26.794 84.432 C 29.664 82.421, 28.646 80.547, 25.698 82.414 C 24.183 83.374, 22.781 83.528, 21.186 82.911 C 19.331 82.195, 18.934 81.391, 19.186 78.859 C 19.602 74.675, 22.045 73.151, 25.433 74.964 C 28.535 76.624, 29.709 75.851, 27.476 73.619 C 24.955 71.098, 20.474 71.582, 18.073 74.635 M 31 78.441 C 31 86.600, 32.792 88.097, 33.199 80.278 C 33.458 75.297, 33.788 74.459, 35.588 74.202 C 36.736 74.038, 38.220 74.560, 38.885 75.362 C 39.863 76.540, 39.684 77.108, 37.952 78.321 L 35.809 79.822 38.092 82.911 C 40.250 85.830, 42.039 86.909, 41.968 85.250 C 41.951 84.838, 41.298 83.658, 40.519 82.628 C 39.293 81.010, 39.298 80.560, 40.551 79.307 C 43.896 75.961, 40.848 72, 34.929 72 L 31 72 31 78.441 M 44.204 78.750 L 44.500 85.500 48.917 85.500 C 51.561 85.500, 53.501 84.998, 53.750 84.250 C 54.032 83.405, 53.006 83, 50.583 83 C 48.065 83, 47 82.554, 47 81.500 C 47 80.576, 47.938 80, 49.441 80 C 50.784 80, 52.160 79.550, 52.500 79 C 52.861 78.417, 51.844 78, 50.059 78 C 47.667 78, 47 77.564, 47 76 C 47 74.381, 47.667 74, 50.500 74 C 52.425 74, 54 73.550, 54 73 C 54 72.450, 51.729 72, 48.954 72 L 43.909 72 44.204 78.750 M 60.324 73.250 C 58.859 75.558, 55 84.189, 55 85.158 C 55 87.245, 57.335 84.498, 59.282 80.121 L 61.337 75.500 63.649 80.750 C 65.936 85.944, 68.826 88.232, 67.438 83.750 C 66.542 80.857, 62.098 72, 61.542 72 C 61.309 72, 60.761 72.563, 60.324 73.250 M 65.544 72.929 C 65.229 73.439, 65.990 74.002, 67.235 74.179 C 69.248 74.464, 69.534 75.144, 69.801 80.278 C 70.180 87.556, 72 86.864, 72 79.441 C 72 74.667, 72.245 74, 74 74 C 75.100 74, 76 73.550, 76 73 C 76 71.739, 66.320 71.673, 65.544 72.929 M 78 74 C 73.885 78.115, 77.289 86, 83.180 86 C 85.729 86, 90 81.616, 90 79 C 90 76.110, 85.623 72, 82.545 72 C 81.145 72, 79.100 72.900, 78 74 M 79.565 75.928 C 76.289 79.548, 80.093 84.673, 84.750 82.914 C 86.354 82.308, 87 81.251, 87 79.232 C 87 74.137, 82.854 72.294, 79.565 75.928 M 36.655 92.750 C 36.400 93.162, 37.230 93.500, 38.500 93.500 C 39.770 93.500, 40.600 93.162, 40.345 92.750 C 40.091 92.338, 39.260 92, 38.500 92 C 37.740 92, 36.909 92.338, 36.655 92.750 M 51.787 95 C 52.029 96.650, 52.350 98, 52.500 98 C 52.650 98, 52.971 96.650, 53.213 95 C 53.485 93.146, 53.213 92, 52.500 92 C 51.787 92, 51.515 93.146, 51.787 95 M 56.813 92.683 C 57.534 92.972, 58.397 92.936, 58.729 92.604 C 59.061 92.272, 58.471 92.036, 57.417 92.079 C 56.252 92.127, 56.015 92.364, 56.813 92.683 M 60.980 93.524 C 59.142 95.739, 60.188 95.994, 62.250 93.833 C 63.212 92.825, 63.605 92, 63.122 92 C 62.640 92, 61.676 92.686, 60.980 93.524 M 67.755 94.500 C 68.018 95.875, 68.353 97, 68.500 97 C 68.647 97, 68.982 95.875, 69.245 94.500 C 69.544 92.936, 69.265 92, 68.500 92 C 67.735 92, 67.456 92.936, 67.755 94.500 M 71.980 93.524 C 70.142 95.739, 71.188 95.994, 73.250 93.833 C 74.213 92.825, 74.605 92, 74.122 92 C 73.640 92, 72.676 92.686, 71.980 93.524 M 78.459 93.067 C 78.096 93.653, 78.070 94.403, 78.400 94.733 C 78.730 95.063, 79 94.760, 79 94.060 C 79 93.319, 79.650 93.035, 80.552 93.382 C 81.442 93.723, 81.843 93.555, 81.493 92.989 C 80.693 91.694, 79.285 91.730, 78.459 93.067 M 25.489 94.018 C 25.110 94.631, 25.070 95.403, 25.400 95.733 C 25.730 96.063, 26.014 95.696, 26.032 94.917 C 26.054 93.921, 26.499 94.076, 27.532 95.441 C 28.339 96.509, 29 96.901, 29 96.314 C 29 94.505, 26.285 92.730, 25.489 94.018 M 31 95.393 C 31 95.609, 31.675 96.045, 32.500 96.362 C 33.325 96.678, 34 96.501, 34 95.969 C 34 95.436, 33.325 95, 32.500 95 C 31.675 95, 31 95.177, 31 95.393 M 36 96.628 C 36 96.698, 36.615 97.266, 37.367 97.890 C 38.395 98.743, 38.995 98.711, 39.782 97.762 C 40.577 96.805, 40.246 96.500, 38.415 96.500 C 37.087 96.500, 36 96.557, 36 96.628 M 56.813 97.683 C 57.534 97.972, 58.397 97.936, 58.729 97.604 C 59.061 97.272, 58.471 97.036, 57.417 97.079 C 56.252 97.127, 56.015 97.364, 56.813 97.683" stroke="none" fill="black" fill-rule="evenodd"/>
</svg>